<?xml version='1.0' encoding='utf-8'?>
<svg xmlns="http://www.w3.org/2000/svg" version="1.1" id="svg2" width="210mm" height="297mm" viewBox="0 0 793.70079 1122.5197"> <title id="title2146">Otter kawaii</title> <metadata id="metadata8"> </metadata> <defs id="defs6"/> <g id="g10"> <path style="fill:#99732b;fill-opacity:1;stroke:#000000;stroke-width:8.25042;stroke-linecap:butt;stroke-linejoin:miter;stroke-miterlimit:4;stroke-dasharray:none;stroke-opacity:1" d="M 56.459303,598.69039 C -38.317249,834.61654 80.689353,981.29978 248.93129,892.59087 L 175.44521,783.48934 C 65.585417,828.29189 78.675179,703.6939 76.353236,623.0603 76.059795,612.87177 59.725391,590.56007 56.459303,598.69039 Z" id="path849"/> <path style="fill:#98722b;fill-opacity:1;stroke:#000000;stroke-width:8.25042;stroke-linecap:butt;stroke-linejoin:miter;stroke-miterlimit:4;stroke-dasharray:none;stroke-opacity:1" d="M 220.93322,566.35435 C 152.7012,462.03961 99.631849,438.04733 79.324701,220.20734 73.62708,159.08757 136.2264,151.42033 160.28253,240.65187 c 24.0414,90.67897 53.06936,151.85523 90.97602,217.13499 17.96562,30.9389 -5.87486,145.94796 -30.32533,108.56749 z" id="path855"/> <path style="fill:#98722b;fill-opacity:1;stroke:#000000;stroke-width:8.25042;stroke-linecap:butt;stroke-linejoin:miter;stroke-miterlimit:4;stroke-dasharray:none;stroke-opacity:1" d="m 600,457.78686 c 68.23203,104.31474 121.30139,128.30702 141.60855,346.14701 5.69753,61.11977 -56.90175,68.78698 -80.95788,-20.44453 C 636.60929,692.81038 607.58133,631.63411 569.67466,566.35435 551.70905,535.41546 575.54952,420.40638 600,457.78686 Z" id="path907"/> <path id="path847" style="fill:#99732b;fill-opacity:1;stroke:#000000;stroke-width:8.54496;stroke-linecap:butt;stroke-linejoin:miter;stroke-miterlimit:4;stroke-dasharray:none;stroke-opacity:1" d="m 328.60652,397.75607 c -28.55323,-1.22628 -55.07858,12.01963 -77.24756,43.40828 l -33.82909,137.7147 c -10.94631,52.16902 -13.28246,101.17599 -4.05474,148.30815 -75.84755,28.24342 -38.54824,285.8167 44.91308,320.824 8.11796,3.4052 78.00106,29.091 109.31566,2.7517 2.44964,-2.0604 1.5755,-8.5329 4.02514,-10.5934 12.98492,-10.9218 30.81808,-11.9256 46.31894,-11.9256 15.50087,0 33.33401,1.0042 46.31892,11.9256 2.44966,2.0605 1.57552,8.533 4.02517,10.5934 31.31459,26.3393 101.19768,0.6538 109.31564,-2.7517 83.46134,-35.0073 120.76069,-292.58058 44.91309,-320.824 9.22775,-47.13216 6.89152,-96.13913 -4.05477,-148.30815 l -33.82909,-137.7147 c -44.33791,-62.77726 -106.0748,-52.96722 -166.68896,0 -30.3071,-26.48361 -60.88818,-42.18203 -89.44143,-43.40828 z"/> <path id="path845" style="fill:#fefefe;fill-opacity:1;stroke:#000000;stroke-width:8.91828px;stroke-linecap:butt;stroke-linejoin:miter;stroke-opacity:1" d="m 289.16524,481.27847 c 46.89778,162.81053 -93.79557,437.55327 125.06074,437.55327 218.85632,0 78.16298,-274.74274 125.06077,-437.55327 -46.89779,-40.70264 -203.22373,-40.70264 -250.12151,0 z"/> <path id="path841" style="fill:#fefefe;fill-opacity:1;stroke:#000000;stroke-width:8.05902;stroke-linecap:butt;stroke-linejoin:miter;stroke-miterlimit:4;stroke-dasharray:none;stroke-opacity:1" d="m 418.04795,70 c -257.76542,4.03593 -284.17999,342.60831 -119.95391,421.06911 37.97952,18.14513 76.86353,21.48562 117.49309,21.63125 40.62956,0.14562 84.43521,-3.48612 122.41473,-21.63125 C 702.22796,412.60831 675.81337,74.03593 418.04795,70 Z"/> <ellipse style="fill:#99732b;fill-opacity:1;stroke:#000000;stroke-width:7.42389;stroke-miterlimit:4;stroke-dasharray:none;stroke-opacity:1" id="path851" cx="240.46729" cy="128.83382" rx="36.63586" ry="37.233261"/> <ellipse style="fill:#99732b;fill-opacity:1;stroke:#000000;stroke-width:7.42389;stroke-miterlimit:4;stroke-dasharray:none;stroke-opacity:1" id="ellipse2087" cx="585.93945" cy="118.32822" rx="36.63586" ry="37.233261"/> <path id="path843" style="fill:#98722b;fill-opacity:1;stroke:#000000;stroke-width:0;stroke-linecap:butt;stroke-linejoin:miter;stroke-miterlimit:4;stroke-dasharray:none;stroke-opacity:1" d="m 417.48526,74.177817 v 0.01883 C 282.48792,75.481276 206.0257,171.51366 197.90787,290.77286 c 43.78278,15.69627 92.7561,17.53977 138.86282,0 24.09639,-9.16668 38.4615,-36.89265 80.99592,-37.66872 42.53442,0.77608 56.89953,28.50204 80.9959,37.66872 46.10674,17.53977 95.08004,15.69627 138.86283,0 C 629.50755,171.51366 553.04526,75.481276 418.04795,74.196207 v -0.01883 c -0.0949,7.17e-4 -0.18646,-8.1e-4 -0.28138,0 -0.0948,-8.1e-4 -0.18646,7.17e-4 -0.28132,0 z"/> <ellipse style="fill:#000000;stroke-width:0" id="path837" cx="302.56796" cy="301.28055" rx="22.490086" ry="39.479084"/> <ellipse style="fill:#000000;fill-opacity:1;stroke:none;stroke-width:13.5168;stroke-miterlimit:4;stroke-dasharray:none;stroke-opacity:1" id="path867" cx="417.77722" cy="279.24969" rx="20.036386" ry="14.980903"/> <ellipse style="fill:#000000;fill-opacity:1;stroke:#000000;stroke-width:9.36493;stroke-miterlimit:4;stroke-dasharray:none;stroke-opacity:1" id="path882" cx="418.30881" cy="361.21353" rx="18.717098" ry="26.748251"/> <path id="ellipse896" style="fill:#866426;fill-opacity:1;stroke:#000000;stroke-width:0;stroke-miterlimit:4;stroke-dasharray:none;stroke-opacity:1" d="m 325.05805,301.28051 c 0,21.80368 -10.06915,39.47908 -22.49009,39.47908 -12.42095,0 -22.49009,-17.6754 -22.49009,-39.47908 24.25003,18.32955 24.25003,18.32955 44.98018,0 z"/> <ellipse style="fill:#ffffff;fill-opacity:1;stroke:none;stroke-width:14.53;stroke-miterlimit:4;stroke-dasharray:none;stroke-opacity:1" id="ellipse899" cx="294.7244" cy="283.32321" rx="6.367291" ry="10.885449"/> <ellipse style="fill:#000000;stroke-width:0" id="ellipse901" cx="531.5141" cy="299.87048" rx="22.490086" ry="39.479084"/> <path id="path903" style="fill:#866426;fill-opacity:1;stroke:#000000;stroke-width:0;stroke-miterlimit:4;stroke-dasharray:none;stroke-opacity:1" d="m 554.00415,299.8705 c 0,21.80372 -10.06915,39.4791 -22.49009,39.4791 -12.42093,0 -22.49009,-17.67538 -22.49009,-39.4791 24.25005,18.32955 24.25005,18.32955 44.98018,0 z"/> <path id="ellipse909" style="fill:#ff4873;fill-opacity:1;stroke:none;stroke-width:9.15318;stroke-miterlimit:4;stroke-dasharray:none;stroke-opacity:1" d="m 437.0259,362.427 c 0,14.10246 -8.37992,25.5348 -18.71709,25.53481 -10.33717,0 -18.7171,-11.43235 -18.7171,-25.53481 17.54748,-6.26893 17.09848,-8.36427 37.43419,0 z"/> <path style="fill:none;stroke:#000000;stroke-width:8.53721;stroke-linecap:butt;stroke-linejoin:miter;stroke-miterlimit:4;stroke-dasharray:none;stroke-opacity:1" d="m 382.69791,1032.4197 c -20.86949,-21.5539 -56.73738,-20.9936 -77.63158,-5.6973" id="path912"/> <path style="fill:none;stroke:#000000;stroke-width:8.53721;stroke-linecap:butt;stroke-linejoin:miter;stroke-miterlimit:4;stroke-dasharray:none;stroke-opacity:1" d="m 459.97538,1032.4197 c 20.8695,-21.5539 56.73738,-20.9936 77.63159,-5.6973" id="path914"/> <ellipse style="fill:#ae8432;fill-opacity:1;stroke:none;stroke-width:13.9278;stroke-miterlimit:4;stroke-dasharray:none;stroke-opacity:1" id="path918" cx="827.16449" cy="380.63287" rx="79.210121" ry="43.04887" transform="matrix(0.61248455,0.79048256,-0.67132248,0.74116538,0,0)"/> <ellipse style="fill:#eb9ce4;fill-opacity:1;stroke:none;stroke-width:7.95832;stroke-miterlimit:4;stroke-dasharray:none;stroke-opacity:1" id="ellipse920" cx="261.85712" cy="370.31049" rx="39.714283" ry="28.03303"/> <ellipse style="fill:#eb9ce4;fill-opacity:1;stroke:none;stroke-width:7.95832;stroke-miterlimit:4;stroke-dasharray:none;stroke-opacity:1" id="ellipse922" cx="571.57141" cy="374.56482" rx="39.714283" ry="28.03303"/> <ellipse style="fill:#ffffff;fill-opacity:1;stroke:none;stroke-width:14.53;stroke-miterlimit:4;stroke-dasharray:none;stroke-opacity:1" id="ellipse2062" cx="524.23108" cy="282.03394" rx="6.367291" ry="10.885449"/> <ellipse style="fill:#ae8432;fill-opacity:1;stroke:none;stroke-width:13.8316;stroke-miterlimit:4;stroke-dasharray:none;stroke-opacity:1" id="ellipse2073" cx="557.41449" cy="-925.89136" rx="81.505226" ry="41.260967" transform="matrix(-0.41132183,0.91149018,-0.8864392,-0.46284505,0,0)"/> <ellipse style="fill:#ae8432;fill-opacity:1;stroke:none;stroke-width:13.3611;stroke-miterlimit:4;stroke-dasharray:none;stroke-opacity:1" id="ellipse2075" cx="-410.91891" cy="-132.47066" rx="73.325241" ry="42.797054" transform="matrix(-0.99948911,0.03196118,-0.07121488,-0.997461,0,0)"/> <path style="opacity:1;fill:#ffffff;stroke-width:4.40314966;stroke-dasharray:none;stroke:#000000;stroke-opacity:1" d="m 417.79908,291.93408 c 0.40406,41.61828 0.40406,41.61828 0.40406,41.61828" id="path604"/> <ellipse style="fill:#ae8432;fill-opacity:1;stroke:none;stroke-width:4.35357;stroke-miterlimit:4;stroke-dasharray:none;stroke-opacity:1" id="ellipse1727" cx="-105.5725" cy="-225.76596" rx="13.80396" ry="24.136297" transform="matrix(-0.99538473,0.09596475,-0.02367429,-0.99971972,0,0)"/> <ellipse style="fill:#ae8432;fill-opacity:1;stroke:none;stroke-width:4.35357;stroke-miterlimit:4;stroke-dasharray:none;stroke-opacity:1" id="ellipse1729" cx="-693.33752" cy="-875.51434" rx="13.80396" ry="24.136297" transform="matrix(-0.99538473,0.09596475,-0.02367429,-0.99971972,0,0)"/> </g> </svg>